<svg version="1.1" id="Layer_1" width="100%" viewBox="1 0 845 1000" xml:space="preserve" xmlns="http://www.w3.org/2000/svg" xmlns:xlink="http://www.w3.org/1999/xlink">

<path fill="#572E66" opacity="1.000000" stroke="none" d=" M446.207947,302.795532   C429.058960,278.278595 426.323059,251.924881 436.756836,224.877716   C443.529236,207.321945 455.964294,193.807861 473.033905,184.562958   C488.752869,176.049591 505.313751,173.841629 522.548584,175.597672   C560.488586,179.463394 587.204468,213.098755 591.450928,243.016327   C597.562073,286.070923 569.547180,327.112183 526.245117,334.773834   C493.414490,340.582764 466.913879,329.045685 446.207947,302.795532  M498.313171,262.501526   C498.313171,257.095795 498.313171,251.690094 498.313171,245.991150   C493.839630,245.991150 490.181274,246.237366 486.571045,245.925980   C482.476685,245.572830 481.051331,246.940109 481.114136,251.173843   C481.333679,265.972961 481.184540,280.777435 481.210144,295.579803   C481.212616,296.987091 481.457581,298.393982 481.649048,300.428619   C485.852112,299.458618 489.531250,298.737946 493.134338,297.741913   C496.734894,296.746582 498.500824,294.522797 498.385254,290.442688   C498.131104,281.468719 498.310730,272.482452 498.313171,262.501526  M514.419189,296.069458   C504.421448,298.988708 494.423706,301.907959 484.425934,304.827209   C484.503357,305.175018 484.580750,305.522797 484.658142,305.870605   C503.760254,305.870605 522.862366,305.870605 542.184082,305.870605   C542.184082,300.113220 542.184082,294.572418 542.184082,288.259277   C532.839966,290.865356 524.010254,293.327942 514.419189,296.069458  M498.996735,217.369110   C498.996735,212.970810 498.996735,208.572525 498.996735,204.357361   C492.582764,204.357361 486.871887,204.357361 481.343994,204.357361   C481.343994,210.425186 481.343994,216.134644 481.343994,222.013077   C486.337494,222.013077 490.978760,221.833572 495.597748,222.076935   C498.617523,222.236038 499.378113,220.954193 498.996735,217.369110  M498.075012,229.721939   C494.756866,224.962753 490.186615,223.401794 485.777954,225.521942   C482.768036,226.969421 480.323059,232.852829 481.329498,236.226410   C482.764038,241.034836 487.676849,243.992645 492.099609,242.710770   C497.354584,241.187683 499.652527,236.637909 498.075012,229.721939  z"/>
<path fill="#572D66" opacity="1.000000" stroke="none" d=" M347.272827,335.541321   C334.156952,336.887573 321.417267,336.269073 309.632019,331.634613   C282.093933,320.805481 263.936523,300.925629 258.064362,271.637665   C252.479370,243.781876 259.599854,218.666199 279.770172,198.445099   C303.353729,174.802216 332.430817,168.620529 363.426361,179.073013   C395.137787,189.766922 412.702332,213.514359 417.099579,246.986557   C421.577576,281.073975 401.279999,315.163422 372.680603,327.522644   C364.704926,330.969330 356.047607,332.838715 347.272827,335.541321  M344.058716,242.998505   C339.128723,242.998505 334.198700,242.998505 328.795166,242.998505   C328.795166,254.730362 328.803070,265.841675 328.793030,276.953003   C328.782196,288.997375 328.777496,288.837250 340.636017,289.028351   C344.555756,289.091461 345.864197,288.035706 345.785461,284.004761   C345.551788,272.040680 345.747101,260.068634 345.689972,248.100113   C345.682373,246.508926 345.184540,244.920059 344.058716,242.998505  M328.523285,307.047424   C337.593231,307.047424 346.663177,307.047424 355.740479,307.047424   C355.740479,301.675476 355.740479,296.957855 355.740479,292.282776   C342.983521,292.282776 330.612274,292.282776 318.270508,292.282776   C318.270508,297.334717 318.270508,302.051178 318.270508,307.072998   C321.594757,307.072998 324.564636,307.072998 328.523285,307.047424  M351.333313,218.962814   C352.773499,218.871704 354.213684,218.780579 355.652771,218.689529   C355.652771,213.612320 355.652771,208.897064 355.652771,204.366302   C342.913727,204.366302 330.525482,204.366302 318.209900,204.366302   C318.209900,209.332489 318.209900,213.929245 318.209900,218.962723   C329.135773,218.962723 339.749725,218.962723 351.333313,218.962814  M329.882660,224.504242   C329.485626,225.225494 328.999023,225.912308 328.706238,226.673676   C326.965179,231.201126 329.446564,236.754166 333.938080,238.468567   C338.676392,240.277206 342.539276,238.457565 344.647095,233.365433   C346.271332,229.441559 346.749420,225.640060 342.872345,222.645355   C339.208771,219.815567 334.765839,220.280441 329.882660,224.504242  z"/>
<path fill="#592F68" opacity="1.000000" stroke="none" d=" M725.828186,325.838989   C694.257141,341.298615 663.943909,340.600800 636.112183,318.695374   C612.734558,300.295715 602.902649,275.686035 606.051697,245.730576   C610.236267,205.924850 644.036865,175.772141 684.393738,174.420837   C720.398926,173.215240 753.422302,198.535080 763.649414,232.172745   C774.174622,266.790802 757.858032,308.658600 725.828186,325.838989  M645.034363,275.500000   C645.035339,283.989685 644.892395,292.483826 645.155762,300.965363   C645.210144,302.715302 646.619873,305.784454 647.676697,305.907288   C652.356934,306.451324 657.136292,306.142761 662.101685,306.142761   C662.101685,303.822357 662.102356,302.337463 662.101624,300.852570   C662.087585,272.722229 662.084534,244.591888 662.053650,216.461578   C662.041077,204.980896 662.006165,205.217560 650.411865,204.856537   C645.762268,204.711731 644.908264,206.365509 644.946045,210.578568   C645.137512,231.884247 645.034302,253.192596 645.034363,275.500000  M713.735657,306.179749   C717.818237,306.179749 721.900757,306.179749 726.428894,306.179749   C726.015198,304.879547 725.930725,304.222260 725.621094,303.697815   C717.854858,290.542358 710.157532,277.344788 702.240173,264.280609   C698.257263,257.708527 688.741516,255.597610 680.824524,259.272919   C681.106873,260.010468 681.293274,260.817230 681.694275,261.497528   C689.943420,275.493713 698.104797,289.544708 706.637695,303.366211   C707.624817,304.965088 710.702576,305.273254 713.735657,306.179749  M698.614807,212.861130   C689.169861,222.454239 679.715698,232.038239 670.283691,241.644073   C665.177673,246.844238 663.278687,260.303589 666.909424,267.963013   C678.234497,255.995926 689.404114,244.214951 700.523865,232.387100   C701.172302,231.697357 701.776367,230.634659 701.792358,229.734711   C701.902344,223.540573 701.850159,217.343552 701.850159,210.492157   C700.450134,211.415909 699.786926,211.853485 698.614807,212.861130  M713.529907,217.055405   C717.495789,213.504745 721.461670,209.954086 725.427490,206.403412   C725.231995,205.923431 725.036560,205.443436 724.841064,204.963440   C719.287048,204.963440 713.728699,204.858414 708.184326,205.089890   C707.451294,205.120483 706.233459,206.841110 706.189697,207.821457   C705.979309,212.529266 706.095154,217.251648 706.095154,223.413864   C709.128174,220.835052 711.064392,219.188766 713.529907,217.055405  z"/>
<path fill="#582E67" opacity="1.000000" stroke="none" d=" M135.288696,179.253723   C181.060760,163.403458 224.978729,188.551605 238.730545,227.875763   C254.755600,273.700439 229.382538,324.799377 177.058701,334.787018   C124.523643,344.814911 76.253578,300.491516 82.316589,247.376297   C86.070595,214.489182 104.145271,191.796570 135.288696,179.253723  M132.184723,291.495544   C132.181000,269.365662 132.190414,247.235748 132.166580,225.105865   C132.158020,217.155426 123.432426,207.017868 115.371155,205.493698   C115.371155,238.867645 115.371155,272.241577 115.371155,305.785217   C121.062569,305.785217 126.419579,305.785217 132.184402,305.785217   C132.184402,301.095123 132.184402,296.793793 132.184723,291.495544  M206.386017,306.176208   C210.404572,306.942657 210.056091,304.264954 210.052551,301.669250   C210.021378,278.847198 210.038620,256.025055 210.018936,233.202972   C210.017853,231.959595 209.815552,230.716385 209.631332,228.608368   C205.979614,231.604034 203.148972,234.388245 199.884445,236.502533   C194.096695,240.251022 192.936676,245.479004 193.107880,251.954834   C193.477539,265.937744 193.216614,279.936737 193.262680,293.928955   C193.303024,306.179169 193.332611,306.179077 206.386017,306.176208  M163.149704,253.369705   C163.149704,255.590073 163.149704,257.810425 163.149704,260.549255   C164.751480,259.969299 165.460144,259.891846 165.930908,259.516266   C179.826279,248.429764 193.709549,237.327972 207.549088,226.171951   C208.534897,225.377319 209.824768,224.174500 209.863724,223.120453   C210.085968,217.107452 209.971573,211.082031 209.971573,204.245804   C208.222595,205.488495 207.401352,206.012299 206.645676,206.617935   C195.369583,215.655289 184.400040,225.113892 172.718613,233.591919   C165.936813,238.513947 161.627304,243.738068 163.149704,253.369705  M156.659485,241.106247   C156.059341,238.927383 155.822998,236.555145 154.787796,234.607513   C152.149597,229.643997 146.909058,228.298676 142.110901,231.015610   C137.209442,233.791061 135.480957,239.428436 138.128815,244.164108   C140.188370,247.847580 143.585159,249.688553 147.587891,249.438568   C152.167114,249.152618 154.963745,246.093460 156.659485,241.106247  z"/>
<path fill="#FCFBFC" opacity="1.000000" stroke="none" d=" M498.313232,263.001373   C498.310730,272.482452 498.131104,281.468719 498.385254,290.442688   C498.500824,294.522797 496.734894,296.746582 493.134338,297.741913   C489.531250,298.737946 485.852112,299.458618 481.649048,300.428619   C481.457581,298.393982 481.212616,296.987091 481.210144,295.579803   C481.184540,280.777435 481.333679,265.972961 481.114136,251.173843   C481.051331,246.940109 482.476685,245.572830 486.571045,245.925980   C490.181274,246.237366 493.839630,245.991150 498.313171,245.991150   C498.313171,251.690094 498.313171,257.095795 498.313232,263.001373  z"/>
<path fill="#FCFBFC" opacity="1.000000" stroke="none" d=" M514.799927,295.929993   C524.010254,293.327942 532.839966,290.865356 542.184082,288.259277   C542.184082,294.572418 542.184082,300.113220 542.184082,305.870605   C522.862366,305.870605 503.760254,305.870605 484.658142,305.870605   C484.580750,305.522797 484.503357,305.175018 484.425934,304.827209   C494.423706,301.907959 504.421448,298.988708 514.799927,295.929993  z"/>
<path fill="#FFFFFF" opacity="1.000000" stroke="none" d=" M498.996796,217.850220   C499.378113,220.954193 498.617523,222.236038 495.597748,222.076935   C490.978760,221.833572 486.337494,222.013077 481.343994,222.013077   C481.343994,216.134644 481.343994,210.425186 481.343994,204.357361   C486.871887,204.357361 492.582764,204.357361 498.996735,204.357361   C498.996735,208.572525 498.996735,212.970810 498.996796,217.850220  z"/>
<path fill="#FAF8FA" opacity="1.000000" stroke="none" d=" M498.178894,230.095184   C499.652527,236.637909 497.354584,241.187683 492.099609,242.710770   C487.676849,243.992645 482.764038,241.034836 481.329498,236.226410   C480.323059,232.852829 482.768036,226.969421 485.777954,225.521942   C490.186615,223.401794 494.756866,224.962753 498.178894,230.095184  z"/>
<path fill="#FAF9FA" opacity="1.000000" stroke="none" d=" M344.486206,243.164307   C345.184540,244.920059 345.682373,246.508926 345.689972,248.100113   C345.747101,260.068634 345.551788,272.040680 345.785461,284.004761   C345.864197,288.035706 344.555756,289.091461 340.636017,289.028351   C328.777496,288.837250 328.782196,288.997375 328.793030,276.953003   C328.803070,265.841675 328.795166,254.730362 328.795166,242.998505   C334.198700,242.998505 339.128723,242.998505 344.486206,243.164307  z"/>
<path fill="#FFFFFF" opacity="1.000000" stroke="none" d=" M328.028931,307.060211   C324.564636,307.072998 321.594757,307.072998 318.270508,307.072998   C318.270508,302.051178 318.270508,297.334717 318.270508,292.282776   C330.612274,292.282776 342.983521,292.282776 355.740479,292.282776   C355.740479,296.957855 355.740479,301.675476 355.740479,307.047424   C346.663177,307.047424 337.593231,307.047424 328.028931,307.060211  z"/>
<path fill="#FEFEFE" opacity="1.000000" stroke="none" d=" M350.848480,218.962769   C339.749725,218.962723 329.135773,218.962723 318.209900,218.962723   C318.209900,213.929245 318.209900,209.332489 318.209900,204.366302   C330.525482,204.366302 342.913727,204.366302 355.652771,204.366302   C355.652771,208.897064 355.652771,213.612320 355.652771,218.689529   C354.213684,218.780579 352.773499,218.871704 350.848480,218.962769  z"/>
<path fill="#FAF8FA" opacity="1.000000" stroke="none" d=" M330.097107,224.177902   C334.765839,220.280441 339.208771,219.815567 342.872345,222.645355   C346.749420,225.640060 346.271332,229.441559 344.647095,233.365433   C342.539276,238.457565 338.676392,240.277206 333.938080,238.468567   C329.446564,236.754166 326.965179,231.201126 328.706238,226.673676   C328.999023,225.912308 329.485626,225.225494 330.097107,224.177902  z"/>
<path fill="#FDFDFD" opacity="1.000000" stroke="none" d=" M645.034363,275.000000   C645.034302,253.192596 645.137512,231.884247 644.946045,210.578568   C644.908264,206.365509 645.762268,204.711731 650.411865,204.856537   C662.006165,205.217560 662.041077,204.980896 662.053650,216.461578   C662.084534,244.591888 662.087585,272.722229 662.101624,300.852570   C662.102356,302.337463 662.101685,303.822357 662.101685,306.142761   C657.136292,306.142761 652.356934,306.451324 647.676697,305.907288   C646.619873,305.784454 645.210144,302.715302 645.155762,300.965363   C644.892395,292.483826 645.035339,283.989685 645.034363,275.000000  z"/>
<path fill="#FBFAFC" opacity="1.000000" stroke="none" d=" M713.273315,306.179779   C710.702576,305.273254 707.624817,304.965088 706.637695,303.366211   C698.104797,289.544708 689.943420,275.493713 681.694275,261.497528   C681.293274,260.817230 681.106873,260.010468 680.824524,259.272919   C688.741516,255.597610 698.257263,257.708527 702.240173,264.280609   C710.157532,277.344788 717.854858,290.542358 725.621094,303.697815   C725.930725,304.222260 726.015198,304.879547 726.428894,306.179749   C721.900757,306.179749 717.818237,306.179749 713.273315,306.179779  z"/>
<path fill="#FAF8FA" opacity="1.000000" stroke="none" d=" M698.869263,212.576096   C699.786926,211.853485 700.450134,211.415909 701.850159,210.492157   C701.850159,217.343552 701.902344,223.540573 701.792358,229.734711   C701.776367,230.634659 701.172302,231.697357 700.523865,232.387100   C689.404114,244.214951 678.234497,255.995926 666.909424,267.963013   C663.278687,260.303589 665.177673,246.844238 670.283691,241.644073   C679.715698,232.038239 689.169861,222.454239 698.869263,212.576096  z"/>
<path fill="#F5F2F6" opacity="1.000000" stroke="none" d=" M713.265259,217.298950   C711.064392,219.188766 709.128174,220.835052 706.095154,223.413864   C706.095154,217.251648 705.979309,212.529266 706.189697,207.821457   C706.233459,206.841110 707.451294,205.120483 708.184326,205.089890   C713.728699,204.858414 719.287048,204.963440 724.841064,204.963440   C725.036560,205.443436 725.231995,205.923431 725.427490,206.403412   C721.461670,209.954086 717.495789,213.504745 713.265259,217.298950  z"/>
<path fill="#FAF9FB" opacity="1.000000" stroke="none" d=" M132.184570,291.994019   C132.184402,296.793793 132.184402,301.095123 132.184402,305.785217   C126.419579,305.785217 121.062569,305.785217 115.371155,305.785217   C115.371155,272.241577 115.371155,238.867645 115.367104,205.493256   C123.432426,207.017868 132.158020,217.155426 132.166580,225.105865   C132.190414,247.235748 132.181000,269.365662 132.184570,291.994019  z"/>
<path fill="#FCFBFC" opacity="1.000000" stroke="none" d=" M205.903076,306.176392   C193.332611,306.179077 193.303024,306.179169 193.262680,293.928955   C193.216614,279.936737 193.477539,265.937744 193.107880,251.954834   C192.936676,245.479004 194.096695,240.251022 199.884445,236.502533   C203.148972,234.388245 205.979614,231.604034 209.631332,228.608368   C209.815552,230.716385 210.017853,231.959595 210.018936,233.202972   C210.038620,256.025055 210.021378,278.847198 210.052551,301.669250   C210.056091,304.264954 210.404572,306.942657 205.903076,306.176392  z"/>
<path fill="#FBFAFB" opacity="1.000000" stroke="none" d=" M163.148987,252.897980   C161.627304,243.738068 165.936813,238.513947 172.718613,233.591919   C184.400040,225.113892 195.369583,215.655289 206.645676,206.617935   C207.401352,206.012299 208.222595,205.488495 209.971573,204.245804   C209.971573,211.082031 210.085968,217.107452 209.863724,223.120453   C209.824768,224.174500 208.534897,225.377319 207.549088,226.171951   C193.709549,237.327972 179.826279,248.429764 165.930908,259.516266   C165.460144,259.891846 164.751480,259.969299 163.149704,260.549255   C163.149704,257.810425 163.149704,255.590073 163.148987,252.897980  z"/>
<path fill="#F9F8FA" opacity="1.000000" stroke="none" d=" M156.540741,241.464600   C154.963745,246.093460 152.167114,249.152618 147.587891,249.438568   C143.585159,249.688553 140.188370,247.847580 138.128815,244.164108   C135.480957,239.428436 137.209442,233.791061 142.110901,231.015610   C146.909058,228.298676 152.149597,229.643997 154.787796,234.607513   C155.822998,236.555145 156.059341,238.927383 156.540741,241.464600  z"/>
</svg>